# xmcd
#
# Track frame offsets: 
#        150
#        11447
#        24530
#        36022
#        45520
#        57315
#        66997
#        78995
#        91007
#        105695
#        122952
#        135385
#        145690
#        158205
#        169892
#        179415
#        190370
#        201185
#        211652
#        224690
#        236682
#        249612
#        261935
#        277407
#
# Disc length: 3835 seconds
#
# Revision: 5
# Processed by: cddbd v1.5.2PL0 Copyright (c) Steve Scherf et al.
# Submitted via: ExactAudioCopy v0.99pb3
#
DISCID=630ef918
DTITLE=Louvin Brothers - When I Stop Dreaming - The Best Of The Louvin
DTITLE=Brothers
DYEAR=1995
DGENRE=Vocal
TTITLE0=Broadminded
TTITLE1=The Family Who Prays
TTITLE2=When I Stop Dreaming
TTITLE3=Pitfall
TTITLE4=Don't Laugh
TTITLE5=I Don't Believe You've Met My Baby
TTITLE6=Hoping That You're Hoping
TTITLE7=The First One to Love You
TTITLE8=In the Pines
TTITLE9=Knoxville Girl
TTITLE10=Cash on the Barrelhead
TTITLE11=You're Running Wild
TTITLE12=My Baby's Gone
TTITLE13=I Wish it Had Been a Dream
TTITLE14=While You're Cheating on Me
TTITLE15=If I Could Only Win Your Love
TTITLE16=You're Learning
TTITLE17=The River of Jordan
TTITLE18=The Kneeling Drunkard's Plea
TTITLE19=Southern Moon
TTITLE20=Gonna Lay Down My Old Guitar
TTITLE21=The Great Atomic Power
TTITLE22=Wreck on the Highway
TTITLE23=Stuck Up Blues
EXTD=Razor and Tie Music YEAR: 1995
EXTT0=
EXTT1=
EXTT2=
EXTT3=
EXTT4=
EXTT5=
EXTT6=
EXTT7=
EXTT8=
EXTT9=
EXTT10=
EXTT11=
EXTT12=
EXTT13=
EXTT14=
EXTT15=
EXTT16=
EXTT17=
EXTT18=
EXTT19=
EXTT20=
EXTT21=
EXTT22=
EXTT23=
PLAYORDER=
